<mxfile host="Electron" modified="2023-08-23T15:06:49.741Z" agent="Mozilla/5.0 (Windows NT 10.0; Win64; x64) AppleWebKit/537.36 (KHTML, like Gecko) draw.io/21.6.8 Chrome/114.0.5735.289 Electron/25.5.0 Safari/537.36" etag="LzRf7fXbMwLh72i_TWEp" version="21.6.8" type="device">
  <diagram name="Seite-1" id="pBJrYs3TOXEtC9QrHh20">
    <mxGraphModel dx="989" dy="606" grid="1" gridSize="10" guides="1" tooltips="1" connect="1" arrows="1" fold="1" page="1" pageScale="1" pageWidth="827" pageHeight="1169" math="0" shadow="0">
      <root>
        <mxCell id="0" />
        <mxCell id="1" parent="0" />
        <mxCell id="WF5lu-MX_zaKCdYxaGGA-6" value="Controller&lt;br&gt;" style="rounded=1;whiteSpace=wrap;html=1;align=center;verticalAlign=top;arcSize=2;fontStyle=1" vertex="1" parent="1">
          <mxGeometry x="150" y="240" width="420" height="520" as="geometry" />
        </mxCell>
        <mxCell id="WF5lu-MX_zaKCdYxaGGA-8" value="Simulink &lt;br&gt;RL Agent" style="rounded=1;whiteSpace=wrap;html=1;align=center;verticalAlign=middle;arcSize=2;fontStyle=1" vertex="1" parent="1">
          <mxGeometry x="415" y="520" width="130" height="90" as="geometry" />
        </mxCell>
        <mxCell id="WF5lu-MX_zaKCdYxaGGA-10" value="Reward" style="edgeStyle=orthogonalEdgeStyle;rounded=0;orthogonalLoop=1;jettySize=auto;html=1;entryX=0.689;entryY=1.028;entryDx=0;entryDy=0;verticalAlign=middle;align=center;exitX=0.5;exitY=0;exitDx=0;exitDy=0;entryPerimeter=0;" edge="1" parent="1" source="WF5lu-MX_zaKCdYxaGGA-11" target="WF5lu-MX_zaKCdYxaGGA-8">
          <mxGeometry relative="1" as="geometry" />
        </mxCell>
        <mxCell id="WF5lu-MX_zaKCdYxaGGA-11" value="Reward Function" style="rounded=1;whiteSpace=wrap;html=1;align=center;verticalAlign=middle;arcSize=2;fontStyle=1" vertex="1" parent="1">
          <mxGeometry x="460" y="680" width="90" height="40" as="geometry" />
        </mxCell>
        <mxCell id="WF5lu-MX_zaKCdYxaGGA-12" value="Sensory &lt;br&gt;Feedback" style="endArrow=classic;html=1;rounded=0;verticalAlign=top;" edge="1" parent="1">
          <mxGeometry x="-0.6" y="5" width="50" height="50" relative="1" as="geometry">
            <mxPoint x="80" y="485" as="sourcePoint" />
            <mxPoint x="180" y="485" as="targetPoint" />
            <mxPoint as="offset" />
          </mxGeometry>
        </mxCell>
        <mxCell id="WF5lu-MX_zaKCdYxaGGA-16" value="RL Observations" style="endArrow=classic;html=1;rounded=0;entryX=0;entryY=0.5;entryDx=0;entryDy=0;verticalAlign=top;align=right;" edge="1" parent="1" target="WF5lu-MX_zaKCdYxaGGA-11">
          <mxGeometry x="-0.7073" width="50" height="50" relative="1" as="geometry">
            <mxPoint x="80" y="700" as="sourcePoint" />
            <mxPoint x="420" y="670" as="targetPoint" />
            <mxPoint as="offset" />
          </mxGeometry>
        </mxCell>
        <mxCell id="WF5lu-MX_zaKCdYxaGGA-18" value="LFL&lt;br&gt;Controller&lt;br&gt;" style="rounded=1;whiteSpace=wrap;html=1;align=center;verticalAlign=top;arcSize=2;fontStyle=1" vertex="1" parent="1">
          <mxGeometry x="220" y="260" width="90" height="40" as="geometry" />
        </mxCell>
        <mxCell id="WF5lu-MX_zaKCdYxaGGA-19" value="LFL&lt;br&gt;Controller&lt;br&gt;" style="rounded=1;whiteSpace=wrap;html=1;align=center;verticalAlign=top;arcSize=2;fontStyle=1" vertex="1" parent="1">
          <mxGeometry x="220" y="320" width="90" height="40" as="geometry" />
        </mxCell>
        <mxCell id="WF5lu-MX_zaKCdYxaGGA-20" value="LFL&lt;br&gt;Controller&lt;br&gt;" style="rounded=1;whiteSpace=wrap;html=1;align=center;verticalAlign=top;arcSize=2;fontStyle=1" vertex="1" parent="1">
          <mxGeometry x="220" y="380" width="90" height="40" as="geometry" />
        </mxCell>
        <mxCell id="WF5lu-MX_zaKCdYxaGGA-24" value="Torque Inputs&lt;br&gt;" style="endArrow=classic;html=1;rounded=0;align=left;verticalAlign=bottom;" edge="1" parent="1">
          <mxGeometry x="0.8955" y="10" width="50" height="50" relative="1" as="geometry">
            <mxPoint x="360" y="644.3" as="sourcePoint" />
            <mxPoint x="610" y="320" as="targetPoint" />
            <Array as="points">
              <mxPoint x="360" y="320" />
            </Array>
            <mxPoint as="offset" />
          </mxGeometry>
        </mxCell>
        <mxCell id="WF5lu-MX_zaKCdYxaGGA-31" value="" style="endArrow=classic;html=1;rounded=0;exitX=1;exitY=0.5;exitDx=0;exitDy=0;" edge="1" parent="1" source="WF5lu-MX_zaKCdYxaGGA-18">
          <mxGeometry width="50" height="50" relative="1" as="geometry">
            <mxPoint x="400" y="480" as="sourcePoint" />
            <mxPoint x="360" y="320" as="targetPoint" />
            <Array as="points">
              <mxPoint x="360" y="280" />
            </Array>
          </mxGeometry>
        </mxCell>
        <mxCell id="WF5lu-MX_zaKCdYxaGGA-32" value="" style="endArrow=classic;html=1;rounded=0;exitX=1;exitY=0.5;exitDx=0;exitDy=0;" edge="1" parent="1" source="WF5lu-MX_zaKCdYxaGGA-19">
          <mxGeometry width="50" height="50" relative="1" as="geometry">
            <mxPoint x="310" y="369.65999999999997" as="sourcePoint" />
            <mxPoint x="360" y="340" as="targetPoint" />
          </mxGeometry>
        </mxCell>
        <mxCell id="WF5lu-MX_zaKCdYxaGGA-33" value="" style="endArrow=classic;html=1;rounded=0;exitX=1;exitY=0.5;exitDx=0;exitDy=0;" edge="1" parent="1" source="WF5lu-MX_zaKCdYxaGGA-20">
          <mxGeometry width="50" height="50" relative="1" as="geometry">
            <mxPoint x="310" y="419.65999999999997" as="sourcePoint" />
            <mxPoint x="360" y="400" as="targetPoint" />
          </mxGeometry>
        </mxCell>
        <mxCell id="WF5lu-MX_zaKCdYxaGGA-34" value="" style="endArrow=classic;html=1;rounded=0;exitX=1;exitY=0.5;exitDx=0;exitDy=0;" edge="1" parent="1" source="WF5lu-MX_zaKCdYxaGGA-58">
          <mxGeometry width="50" height="50" relative="1" as="geometry">
            <mxPoint x="310" y="535" as="sourcePoint" />
            <mxPoint x="360" y="525" as="targetPoint" />
          </mxGeometry>
        </mxCell>
        <mxCell id="WF5lu-MX_zaKCdYxaGGA-35" value="" style="endArrow=classic;html=1;rounded=0;exitX=1;exitY=0.5;exitDx=0;exitDy=0;" edge="1" parent="1">
          <mxGeometry width="50" height="50" relative="1" as="geometry">
            <mxPoint x="310" y="585" as="sourcePoint" />
            <mxPoint x="360" y="585" as="targetPoint" />
          </mxGeometry>
        </mxCell>
        <mxCell id="WF5lu-MX_zaKCdYxaGGA-37" value="" style="endArrow=classic;html=1;rounded=0;entryX=0;entryY=0.5;entryDx=0;entryDy=0;" edge="1" parent="1" target="WF5lu-MX_zaKCdYxaGGA-18">
          <mxGeometry width="50" height="50" relative="1" as="geometry">
            <mxPoint x="180" y="485" as="sourcePoint" />
            <mxPoint x="90" y="330" as="targetPoint" />
            <Array as="points">
              <mxPoint x="180" y="485" />
              <mxPoint x="180" y="280" />
            </Array>
          </mxGeometry>
        </mxCell>
        <mxCell id="WF5lu-MX_zaKCdYxaGGA-40" value="" style="endArrow=classic;html=1;rounded=0;entryX=0;entryY=0.5;entryDx=0;entryDy=0;" edge="1" parent="1" target="WF5lu-MX_zaKCdYxaGGA-60">
          <mxGeometry width="50" height="50" relative="1" as="geometry">
            <mxPoint x="180" y="480" as="sourcePoint" />
            <mxPoint x="220" y="635" as="targetPoint" />
            <Array as="points">
              <mxPoint x="180" y="645" />
            </Array>
          </mxGeometry>
        </mxCell>
        <mxCell id="WF5lu-MX_zaKCdYxaGGA-41" value="" style="endArrow=classic;html=1;rounded=0;entryX=0;entryY=0.5;entryDx=0;entryDy=0;" edge="1" parent="1">
          <mxGeometry width="50" height="50" relative="1" as="geometry">
            <mxPoint x="180" y="585" as="sourcePoint" />
            <mxPoint x="220" y="585" as="targetPoint" />
          </mxGeometry>
        </mxCell>
        <mxCell id="WF5lu-MX_zaKCdYxaGGA-42" value="" style="endArrow=classic;html=1;rounded=0;entryX=0;entryY=0.5;entryDx=0;entryDy=0;" edge="1" parent="1" target="WF5lu-MX_zaKCdYxaGGA-58">
          <mxGeometry width="50" height="50" relative="1" as="geometry">
            <mxPoint x="180" y="525" as="sourcePoint" />
            <mxPoint x="220" y="535" as="targetPoint" />
          </mxGeometry>
        </mxCell>
        <mxCell id="WF5lu-MX_zaKCdYxaGGA-44" value="" style="endArrow=classic;html=1;rounded=0;entryX=0;entryY=0.5;entryDx=0;entryDy=0;" edge="1" parent="1" target="WF5lu-MX_zaKCdYxaGGA-20">
          <mxGeometry width="50" height="50" relative="1" as="geometry">
            <mxPoint x="180" y="400" as="sourcePoint" />
            <mxPoint x="260" y="484.71" as="targetPoint" />
          </mxGeometry>
        </mxCell>
        <mxCell id="WF5lu-MX_zaKCdYxaGGA-45" value="" style="endArrow=classic;html=1;rounded=0;entryX=0;entryY=0.5;entryDx=0;entryDy=0;" edge="1" parent="1" target="WF5lu-MX_zaKCdYxaGGA-19">
          <mxGeometry width="50" height="50" relative="1" as="geometry">
            <mxPoint x="180" y="340" as="sourcePoint" />
            <mxPoint x="230" y="460" as="targetPoint" />
          </mxGeometry>
        </mxCell>
        <mxCell id="WF5lu-MX_zaKCdYxaGGA-46" value="Coordinator" style="rounded=1;whiteSpace=wrap;html=1;align=center;verticalAlign=middle;arcSize=2;fontStyle=1" vertex="1" parent="1">
          <mxGeometry x="205" y="439" width="120" height="50" as="geometry" />
        </mxCell>
        <mxCell id="WF5lu-MX_zaKCdYxaGGA-47" value="Actions" style="endArrow=classic;html=1;rounded=0;exitX=0.5;exitY=0;exitDx=0;exitDy=0;entryX=1;entryY=0.5;entryDx=0;entryDy=0;verticalAlign=middle;" edge="1" parent="1" source="WF5lu-MX_zaKCdYxaGGA-8" target="WF5lu-MX_zaKCdYxaGGA-46">
          <mxGeometry width="50" height="50" relative="1" as="geometry">
            <mxPoint x="330" y="500" as="sourcePoint" />
            <mxPoint x="380" y="450" as="targetPoint" />
            <Array as="points">
              <mxPoint x="480" y="463" />
            </Array>
          </mxGeometry>
        </mxCell>
        <mxCell id="WF5lu-MX_zaKCdYxaGGA-49" value="" style="endArrow=classic;html=1;rounded=0;entryX=0.25;entryY=1;entryDx=0;entryDy=0;" edge="1" parent="1" target="WF5lu-MX_zaKCdYxaGGA-8">
          <mxGeometry width="50" height="50" relative="1" as="geometry">
            <mxPoint x="448" y="700" as="sourcePoint" />
            <mxPoint x="450" y="590" as="targetPoint" />
          </mxGeometry>
        </mxCell>
        <mxCell id="WF5lu-MX_zaKCdYxaGGA-58" value="LFL&lt;br&gt;Controller&lt;br&gt;" style="rounded=1;whiteSpace=wrap;html=1;align=center;verticalAlign=top;arcSize=2;fontStyle=1" vertex="1" parent="1">
          <mxGeometry x="220" y="504.5" width="90" height="40" as="geometry" />
        </mxCell>
        <mxCell id="WF5lu-MX_zaKCdYxaGGA-59" value="LFL&lt;br&gt;Controller&lt;br&gt;" style="rounded=1;whiteSpace=wrap;html=1;align=center;verticalAlign=top;arcSize=2;fontStyle=1" vertex="1" parent="1">
          <mxGeometry x="220" y="564.5" width="90" height="40" as="geometry" />
        </mxCell>
        <mxCell id="WF5lu-MX_zaKCdYxaGGA-60" value="LFL&lt;br&gt;Controller&lt;br&gt;" style="rounded=1;whiteSpace=wrap;html=1;align=center;verticalAlign=top;arcSize=2;fontStyle=1" vertex="1" parent="1">
          <mxGeometry x="220" y="624.5" width="90" height="40" as="geometry" />
        </mxCell>
        <mxCell id="WF5lu-MX_zaKCdYxaGGA-64" value="" style="endArrow=classic;html=1;rounded=0;exitX=1;exitY=0.5;exitDx=0;exitDy=0;" edge="1" parent="1">
          <mxGeometry width="50" height="50" relative="1" as="geometry">
            <mxPoint x="310" y="644.33" as="sourcePoint" />
            <mxPoint x="360" y="644.33" as="targetPoint" />
          </mxGeometry>
        </mxCell>
        <mxCell id="WF5lu-MX_zaKCdYxaGGA-65" value="" style="endArrow=none;dashed=1;html=1;dashPattern=1 1;strokeWidth=2;rounded=0;entryX=0.5;entryY=1;entryDx=0;entryDy=0;" edge="1" parent="1" source="WF5lu-MX_zaKCdYxaGGA-46" target="WF5lu-MX_zaKCdYxaGGA-20">
          <mxGeometry width="50" height="50" relative="1" as="geometry">
            <mxPoint x="240" y="520" as="sourcePoint" />
            <mxPoint x="290" y="470" as="targetPoint" />
          </mxGeometry>
        </mxCell>
        <mxCell id="WF5lu-MX_zaKCdYxaGGA-67" value="" style="endArrow=none;dashed=1;html=1;dashPattern=1 1;strokeWidth=2;rounded=0;entryX=0.5;entryY=1;entryDx=0;entryDy=0;exitX=0.5;exitY=0;exitDx=0;exitDy=0;" edge="1" parent="1" source="WF5lu-MX_zaKCdYxaGGA-20" target="WF5lu-MX_zaKCdYxaGGA-19">
          <mxGeometry width="50" height="50" relative="1" as="geometry">
            <mxPoint x="275" y="447" as="sourcePoint" />
            <mxPoint x="275" y="430" as="targetPoint" />
          </mxGeometry>
        </mxCell>
        <mxCell id="WF5lu-MX_zaKCdYxaGGA-68" value="" style="endArrow=none;dashed=1;html=1;dashPattern=1 1;strokeWidth=2;rounded=0;entryX=0.5;entryY=1;entryDx=0;entryDy=0;exitX=0.5;exitY=0;exitDx=0;exitDy=0;" edge="1" parent="1" source="WF5lu-MX_zaKCdYxaGGA-58" target="WF5lu-MX_zaKCdYxaGGA-46">
          <mxGeometry width="50" height="50" relative="1" as="geometry">
            <mxPoint x="275" y="390" as="sourcePoint" />
            <mxPoint x="275" y="370" as="targetPoint" />
          </mxGeometry>
        </mxCell>
        <mxCell id="WF5lu-MX_zaKCdYxaGGA-69" value="" style="endArrow=none;dashed=1;html=1;dashPattern=1 1;strokeWidth=2;rounded=0;entryX=0.5;entryY=1;entryDx=0;entryDy=0;exitX=0.5;exitY=0;exitDx=0;exitDy=0;" edge="1" parent="1" source="WF5lu-MX_zaKCdYxaGGA-59" target="WF5lu-MX_zaKCdYxaGGA-58">
          <mxGeometry width="50" height="50" relative="1" as="geometry">
            <mxPoint x="275" y="515" as="sourcePoint" />
            <mxPoint x="275" y="500" as="targetPoint" />
          </mxGeometry>
        </mxCell>
        <mxCell id="WF5lu-MX_zaKCdYxaGGA-70" value="" style="endArrow=none;dashed=1;html=1;dashPattern=1 1;strokeWidth=2;rounded=0;entryX=0.5;entryY=1;entryDx=0;entryDy=0;exitX=0.5;exitY=0;exitDx=0;exitDy=0;" edge="1" parent="1" source="WF5lu-MX_zaKCdYxaGGA-60" target="WF5lu-MX_zaKCdYxaGGA-59">
          <mxGeometry width="50" height="50" relative="1" as="geometry">
            <mxPoint x="285" y="525" as="sourcePoint" />
            <mxPoint x="285" y="510" as="targetPoint" />
          </mxGeometry>
        </mxCell>
      </root>
    </mxGraphModel>
  </diagram>
</mxfile>
